<svg width="35" height="20" viewBox="0 0 35 20" fill="none" xmlns="http://www.w3.org/2000/svg">
<rect width="35" height="20" rx="10" fill="#3900AD"/>
<path d="M27.2295 6.44629C27.3228 6.1851 27.6772 6.1851 27.7705 6.44629L27.9014 6.80078C28.3865 8.08774 29.3936 9.11355 30.6992 9.59863L31.0537 9.72949C31.3149 9.82278 31.3149 10.1772 31.0537 10.2705L30.6992 10.4014C29.4123 10.8865 28.3865 11.8936 27.9014 13.1992L27.7705 13.5537C27.6772 13.8149 27.3228 13.8149 27.2295 13.5537L27.0986 13.1992C26.6135 11.9123 25.6064 10.8865 24.3008 10.4014L23.9463 10.2705C23.6851 10.1772 23.6851 9.82278 23.9463 9.72949L24.3008 9.59863C25.5877 9.11355 26.6135 8.10639 27.0986 6.80078L27.2295 6.44629ZM16.5654 7.71094C18.4295 7.71109 19.6613 8.90871 19.6602 10.7051C19.66 12.523 18.4172 13.6973 16.5303 13.6973C14.6314 13.6973 13.4231 12.5231 13.4229 10.6934C13.4229 8.90873 14.6778 7.71094 16.5654 7.71094ZM8.81543 6.03125C9.47131 6.03138 9.81627 6.3891 9.81738 7.10156V10.5771C9.81738 12.7174 8.79281 13.6961 6.84863 13.6963C5.24826 13.6963 4.38574 13.1315 4.38574 12.2109C4.3859 11.3593 5.10991 11.0146 5.14453 11.0605C5.50129 11.4976 5.94995 11.7392 6.50195 11.7393C7.20387 11.7393 7.5038 11.4285 7.50391 10.543V7.10156C7.50391 6.38815 7.84904 6.03136 8.48145 6.03125H8.81543ZM11.8281 7.76855C12.4268 7.76855 12.8183 8.0106 12.8184 8.83887V12.5215C12.8184 13.3156 12.4154 13.5928 11.8516 13.5928H11.6211C11.023 13.5927 10.6084 13.3387 10.6084 12.5215V8.83887C10.6085 8.03328 11.0343 7.76861 11.5977 7.76855H11.8281ZM16.542 9.3916C15.8175 9.3916 15.2988 9.93312 15.2988 10.6924C15.299 11.415 15.7438 11.9347 16.4062 11.9971L16.542 12.0039C17.2554 12.0039 17.7851 11.4516 17.7852 10.7041C17.7852 9.9332 17.2664 9.39164 16.542 9.3916ZM11.7021 5.09961C12.4385 5.09969 12.8984 5.49173 12.8984 6.13574C12.8982 6.77955 12.4497 7.18262 11.7363 7.18262C11.0002 7.1826 10.5393 6.77954 10.5391 6.13574C10.5391 5.50278 10.9884 5.09961 11.7021 5.09961Z" fill="white"/>
</svg>
