<svg width="32" height="32" viewBox="0 0 32 32" fill="none" xmlns="http://www.w3.org/2000/svg">
<g clip-path="url(#clip0_101_214)">
<rect width="32" height="32" rx="16" fill="#3900AD"/>
<path d="M11.3038 9.64982H10.7704C9.75829 9.64982 9.2054 10.2205 9.2054 11.3621V16.8679C9.2054 18.2854 8.72658 18.7829 7.60332 18.7829C6.71977 18.7829 6.00184 18.3959 5.43088 17.6963C5.37547 17.6229 4.21606 18.1749 4.21606 19.5378C4.21606 21.0107 5.59621 21.9132 8.15681 21.9132C11.2679 21.9132 12.9076 20.3479 12.9076 16.9233V11.3621C12.9058 10.222 12.3535 9.64982 11.3038 9.64982ZM23.7038 12.3381C20.6836 12.3381 18.6768 14.2531 18.6768 17.1085C18.6768 20.0365 20.6095 21.915 23.6481 21.915C26.6673 21.915 28.6555 20.0365 28.6555 17.1275C28.6573 14.2531 26.6866 12.3381 23.7038 12.3381ZM23.6667 19.206C22.4878 19.206 21.678 18.3408 21.678 17.107C21.678 15.8922 22.5076 15.0264 23.6667 15.0264C24.8258 15.0264 25.6552 15.8922 25.6552 17.1257C25.6555 18.3221 24.8087 19.206 23.667 19.206H23.6667ZM16.1251 12.43H15.7562C14.8546 12.43 14.1734 12.8531 14.1734 14.1426V20.0347C14.1734 21.3423 14.8365 21.7476 15.7935 21.7476H16.1621C17.0644 21.7476 17.7085 21.3052 17.7085 20.0347V14.1426C17.7085 12.8169 17.083 12.43 16.1251 12.43ZM15.9227 8.15886C14.7808 8.15886 14.0629 8.8036 14.0629 9.81634C14.0629 10.8469 14.7998 11.4913 15.9778 11.4913C17.1195 11.4913 17.8377 10.8469 17.8377 9.81634C17.8377 8.78582 17.1011 8.15886 15.9227 8.15886Z" fill="white"/>
</g>
<defs>
<clipPath id="clip0_101_214">
<path d="M0 16C0 7.16344 7.16344 0 16 0V0C24.8366 0 32 7.16344 32 16V16C32 24.8366 24.8366 32 16 32V32C7.16344 32 0 24.8366 0 16V16Z" fill="white"/>
</clipPath>
</defs>
</svg>
