<svg width="35" height="20" viewBox="0 0 35 20" fill="none" xmlns="http://www.w3.org/2000/svg">
<g clip-path="url(#clip0_135_246)">
<path d="M35 20H10C4.47715 20 0 15.5228 0 10C0 4.47715 4.47715 2.41597e-07 10 0H35V20ZM27.7705 6.44629C27.6772 6.1851 27.3228 6.1851 27.2295 6.44629L27.0986 6.80078C26.6135 8.10639 25.5877 9.11355 24.3008 9.59863L23.9463 9.72949C23.6851 9.82278 23.6851 10.1772 23.9463 10.2705L24.3008 10.4014C25.6064 10.8865 26.6135 11.9123 27.0986 13.1992L27.2295 13.5537C27.3228 13.8149 27.6772 13.8149 27.7705 13.5537L27.9014 13.1992C28.3865 11.8936 29.4123 10.8865 30.6992 10.4014L31.0537 10.2705C31.3149 10.1772 31.3149 9.82278 31.0537 9.72949L30.6992 9.59863C29.3936 9.11355 28.3865 8.08774 27.9014 6.80078L27.7705 6.44629ZM16.5654 7.71094C14.6778 7.71094 13.4229 8.90873 13.4229 10.6934C13.4231 12.5231 14.6314 13.6973 16.5303 13.6973C18.4172 13.6973 19.66 12.523 19.6602 10.7051C19.6613 8.90871 18.4295 7.71109 16.5654 7.71094ZM8.48145 6.03125C7.84904 6.03136 7.50391 6.38815 7.50391 7.10156V10.543C7.5038 11.4285 7.20387 11.7393 6.50195 11.7393C5.94995 11.7392 5.50129 11.4976 5.14453 11.0605C5.10991 11.0146 4.3859 11.3593 4.38574 12.2109C4.38574 13.1315 5.24826 13.6963 6.84863 13.6963C8.79281 13.6961 9.81738 12.7174 9.81738 10.5771V7.10156C9.81627 6.3891 9.47131 6.03138 8.81543 6.03125H8.48145ZM11.5977 7.76855C11.0343 7.76861 10.6085 8.03328 10.6084 8.83887V12.5215C10.6084 13.3387 11.023 13.5927 11.6211 13.5928H11.8516C12.4154 13.5928 12.8184 13.3156 12.8184 12.5215V8.83887C12.8183 8.0106 12.4268 7.76855 11.8281 7.76855H11.5977ZM16.542 9.3916C17.2664 9.39164 17.7852 9.9332 17.7852 10.7041C17.7851 11.4516 17.2554 12.0039 16.542 12.0039L16.4062 11.9971C15.7438 11.9347 15.299 11.415 15.2988 10.6924C15.2988 9.93312 15.8175 9.3916 16.542 9.3916ZM11.7021 5.09961C10.9884 5.09961 10.5391 5.50278 10.5391 6.13574C10.5393 6.77954 11.0002 7.1826 11.7363 7.18262C12.4497 7.18262 12.8982 6.77955 12.8984 6.13574C12.8984 5.49173 12.4385 5.09969 11.7021 5.09961Z" fill="white"/>
</g>
<defs>
<clipPath id="clip0_135_246">
<rect width="35" height="20" rx="10" fill="white"/>
</clipPath>
</defs>
</svg>
